<?xml version="1.0" encoding="UTF-8" standalone="no"?>
<svg
   xmlns:dc="http://purl.org/dc/elements/1.1/"
   xmlns:cc="http://creativecommons.org/ns#"
   xmlns:rdf="http://www.w3.org/1999/02/22-rdf-syntax-ns#"
   xmlns:svg="http://www.w3.org/2000/svg"
   xmlns="http://www.w3.org/2000/svg"
   xmlns:sodipodi="http://sodipodi.sourceforge.net/DTD/sodipodi-0.dtd"
   xmlns:inkscape="http://www.inkscape.org/namespaces/inkscape"
   version="1.1"
   id="svg8"
   sodipodi:docname="hi.svg">
  <metadata
     id="metadata14">
    <rdf:RDF>
      <cc:Work
         rdf:about="">
        <dc:format>image/svg+xml</dc:format>
        <dc:type
           rdf:resource="http://purl.org/dc/dcmitype/StillImage" />
      </cc:Work>
    </rdf:RDF>
  </metadata>
  <defs
     id="defs12" />
  <sodipodi:namedview
     pagecolor="#ffffff"
     bordercolor="#666666"
     borderopacity="1"
     objecttolerance="10"
     gridtolerance="10"
     guidetolerance="10"
     inkscape:pageopacity="0"
     inkscape:pageshadow="2"
     inkscape:window-width="640"
     inkscape:window-height="480"
     id="namedview10"
     showgrid="false" />
  <path
     d="m 173.59186,104.06945 q 0,4.23333 2.11667,7.76111 2.11666,3.35139 2.11666,5.46806 0,1.94027 -1.05833,3.52777 -0.88195,1.5875 -2.46945,1.5875 -2.99861,0 -4.93888,-5.11527 -1.94028,-5.11528 -1.94028,-10.75972 0,-8.466673 6.17361,-15.169453 6.35,-6.702777 16.05139,-6.702777 6.52639,0 9.70139,6.349997 3.35139,6.17361 3.35139,14.111113 0,7.9375 -0.52917,14.99306 -0.35278,6.87917 -0.70556,10.75972 -0.35277,3.70417 -1.41111,11.99445 -1.05833,8.11388 -1.41111,11.28888 14.11111,0 29.63333,-14.2875 2.11667,-25.39999 5.82084,-39.68749 3.88055,-14.463896 7.76111,-20.284729 3.88055,-5.820834 8.29028,-5.820834 4.58611,0 7.40833,4.056945 2.99861,4.056944 2.99861,9.701388 0,20.81389 -18.52083,44.97917 -1.05834,13.93472 -1.05834,25.75278 0,11.64166 3.35139,22.75416 3.52778,10.93611 3.52778,12.17084 0,1.41111 -1.94028,2.11666 -1.94028,0.88195 -4.23333,0.88195 -6.17361,0 -10.05417,-3.175 -1.94028,-1.5875 -3.175,-10.75973 -1.23472,-9.17222 -1.23472,-17.10972 0,-8.11389 0.52917,-17.4625 -15.69861,13.40556 -29.80972,13.93473 -0.17639,2.46944 -0.35278,8.29027 -0.17639,5.64445 -0.52917,8.46667 -0.35278,2.64583 -1.41111,6.17361 -1.76389,6.52639 -8.46667,6.52639 -4.05694,0 -4.05694,-6.87917 0,-7.05555 2.11667,-24.34166 -7.9375,-3.35139 -7.9375,-11.81806 0,-6.17361 3.175,-10.40694 3.175,-4.40973 7.76111,-4.40973 1.5875,-16.22777 1.5875,-25.04722 0,-15.875003 -4.93889,-15.875003 -11.28889,0 -11.28889,11.465283 z m 81.31528,-13.229173 q 0,-2.645829 -0.88195,-4.762495 -0.70555,-2.293056 -1.94028,-2.293056 -4.93889,0 -8.99583,38.276394 11.81806,-17.99167 11.81806,-31.220843 z m -67.20417,48.330563 q -2.46944,1.76389 -2.46944,4.7625 0,2.99861 1.41111,4.93889 z"
     id="path2" />
  <path
     d="m 265.45188,104.24584 q 0,-3.175 3.35139,-5.468063 3.35139,-2.29305 5.99722,-2.29305 4.7625,0 4.7625,5.468053 0,5.46806 -2.82222,9.525 -2.82222,3.88056 -7.9375,3.88056 -3.35139,0 -3.35139,-11.1125 z m 5.11528,87.13611 q -6.87917,0 -10.40695,-2.82222 -1.23472,-1.23473 -1.23472,-8.81945 0,-7.58472 1.05833,-25.22361 1.23473,-17.81528 2.11667,-19.22639 0.88195,-1.41111 5.46806,-5.29166 4.58611,-3.88056 7.05555,-3.88056 2.64584,0 2.64584,6.70278 0,1.76389 -1.05834,6.87917 -0.88194,5.11527 -2.11666,7.40833 -2.29306,5.82083 -2.29306,30.51528 0,4.7625 1.05833,4.7625 2.99861,-0.17639 8.29028,-7.40834 5.29167,-7.40833 10.40695,-18.87361 5.29166,-11.46528 6.35,-11.46528 1.23472,0 1.23472,1.41112 0,4.93888 -5.11528,15.69861 -13.93472,29.63333 -23.45972,29.63333 z"
     id="path4" />
  <path
     d="m 295.22302,185.20834 q 0,-1.94028 3.35139,-4.93889 3.35138,-3.175 5.99722,-3.175 2.64583,0 4.7625,3.35139 2.11666,3.175 2.11666,7.58472 0,4.40972 -6.52638,13.40556 -6.35,9.17222 -10.75973,9.17222 -1.41111,0 -1.41111,-1.94028 0,-1.94028 3.52778,-6.52639 3.52778,-4.58611 3.52778,-7.23194 0,-2.46945 -2.29306,-5.11528 -2.29305,-2.64583 -2.29305,-4.58611 z"
     id="path6" />
  <path
     style="fill:none;stroke:#000000;stroke-width:12;stroke-linecap:butt;stroke-linejoin:miter;stroke-miterlimit:4;stroke-dasharray:none;stroke-opacity:1"
     d="m 176.76686,120.82639 -6.58184,-12.73661 2.09735,-11.385617 10.18713,-7.790159 9.28827,1.797729 3.29584,7.490538 0.29962,10.187129 c -2.00078,27.56518 -8.78474,55.13036 -5.99243,82.69554 l -2.09735,11.38562 -15.2807,-2.69659 0.59924,-24.86859 -8.08978,-22.77124 12.28449,-21.87237 17.97729,-3.89508 -1.49811,11.086 -8.08978,-1.49811 -3.89508,7.19092 2.39697,10.18713 8.3894,3.59546 11.086,1.19848 23.07086,-12.88372 20.9735,-24.26934 8.98865,-18.57654 1.49811,-13.183345 -2.6966,-8.389402 -6.29205,-2.396972 -8.98865,20.673884 -2.69659,20.673885 -3.29584,44.94323 c 1.40442,8.4313 -8.55958,26.22484 5.09357,24.56896 l 2.09735,6.8913 3.59546,14.68145 7.19091,-16.17956 -5.6928,-24.86859 8.68902,-37.75231 12.88373,-8.98864 1.79772,19.4754 -2.39697,40.4489 2.99622,5.09357 7.49054,-3.59546 10.78637,-16.17956 7.19092,-14.08222 2.99621,-8.68902 -27.8648,-36.55382 c -4.89766,-7.19092 5.92136,-4.00095 3.29584,-14.381837 l 33.55761,2.09735 -0.89887,70.710677 -8.68902,6.29205 3.89508,8.08978 c -1.39009,2.33194 -4.09499,3.30361 4.49432,7.79016 l -12.5841,20.97351"
     id="path3707"
     inkscape:connector-curvature="0"
     sodipodi:nodetypes="ccccccccccccccccccccccccccccccccccccccccccccccccccc" />
</svg>
