<svg>
  <path
     d="m 173.59186,104.06945 q 0,4.23333 2.11667,7.76111 2.11666,3.35139 2.11666,5.46806 0,1.94027 -1.05833,3.52777 -0.88195,1.5875 -2.46945,1.5875 -2.99861,0 -4.93888,-5.11527 -1.94028,-5.11528 -1.94028,-10.75972 0,-8.466673 6.17361,-15.169453 6.35,-6.702777 16.05139,-6.702777 6.52639,0 9.70139,6.349997 3.35139,6.17361 3.35139,14.111113 0,7.9375 -0.52917,14.99306 -0.35278,6.87917 -0.70556,10.75972 -0.35277,3.70417 -1.41111,11.99445 -1.05833,8.11388 -1.41111,11.28888 14.11111,0 29.63333,-14.2875 2.11667,-25.39999 5.82084,-39.68749 3.88055,-14.463896 7.76111,-20.284729 3.88055,-5.820834 8.29028,-5.820834 4.58611,0 7.40833,4.056945 2.99861,4.056944 2.99861,9.701388 0,20.81389 -18.52083,44.97917 -1.05834,13.93472 -1.05834,25.75278 0,11.64166 3.35139,22.75416 3.52778,10.93611 3.52778,12.17084 0,1.41111 -1.94028,2.11666 -1.94028,0.88195 -4.23333,0.88195 -6.17361,0 -10.05417,-3.175 -1.94028,-1.5875 -3.175,-10.75973 -1.23472,-9.17222 -1.23472,-17.10972 0,-8.11389 0.52917,-17.4625 -15.69861,13.40556 -29.80972,13.93473 -0.17639,2.46944 -0.35278,8.29027 -0.17639,5.64445 -0.52917,8.46667 -0.35278,2.64583 -1.41111,6.17361 -1.76389,6.52639 -8.46667,6.52639 -4.05694,0 -4.05694,-6.87917 0,-7.05555 2.11667,-24.34166 -7.9375,-3.35139 -7.9375,-11.81806 0,-6.17361 3.175,-10.40694 3.175,-4.40973 7.76111,-4.40973 1.5875,-16.22777 1.5875,-25.04722 0,-15.875003 -4.93889,-15.875003 -11.28889,0 -11.28889,11.465283 z m 81.31528,-13.229173 q 0,-2.645829 -0.88195,-4.762495 -0.70555,-2.293056 -1.94028,-2.293056 -4.93889,0 -8.99583,38.276394 11.81806,-17.99167 11.81806,-31.220843 z m -67.20417,48.330563 q -2.46944,1.76389 -2.46944,4.7625 0,2.99861 1.41111,4.93889 z"
   />
  <path
     d="m 265.45188,104.24584 q 0,-3.175 3.35139,-5.468063 3.35139,-2.29305 5.99722,-2.29305 4.7625,0 4.7625,5.468053 0,5.46806 -2.82222,9.525 -2.82222,3.88056 -7.9375,3.88056 -3.35139,0 -3.35139,-11.1125 z m 5.11528,87.13611 q -6.87917,0 -10.40695,-2.82222 -1.23472,-1.23473 -1.23472,-8.81945 0,-7.58472 1.05833,-25.22361 1.23473,-17.81528 2.11667,-19.22639 0.88195,-1.41111 5.46806,-5.29166 4.58611,-3.88056 7.05555,-3.88056 2.64584,0 2.64584,6.70278 0,1.76389 -1.05834,6.87917 -0.88194,5.11527 -2.11666,7.40833 -2.29306,5.82083 -2.29306,30.51528 0,4.7625 1.05833,4.7625 2.99861,-0.17639 8.29028,-7.40834 5.29167,-7.40833 10.40695,-18.87361 5.29166,-11.46528 6.35,-11.46528 1.23472,0 1.23472,1.41112 0,4.93888 -5.11528,15.69861 -13.93472,29.63333 -23.45972,29.63333 z"
   />
  <path
     d="m 295.22302,185.20834 q 0,-1.94028 3.35139,-4.93889 3.35138,-3.175 5.99722,-3.175 2.64583,0 4.7625,3.35139 2.11666,3.175 2.11666,7.58472 0,4.40972 -6.52638,13.40556 -6.35,9.17222 -10.75973,9.17222 -1.41111,0 -1.41111,-1.94028 0,-1.94028 3.52778,-6.52639 3.52778,-4.58611 3.52778,-7.23194 0,-2.46945 -2.29306,-5.11528 -2.29305,-2.64583 -2.29305,-4.58611 z"
   />
</svg>
