<svg>
 <path d="m163 94.979-4.6751-14.855 2.0974-11.386 10.187-7.7902 9.2883 1.7977 3.2958 7.4905 1.3589 10.187c-2.4756 27.584-3.9448 44.992-7.0518 82.696l-2.0974 11.386-15.281-2.6966 0.59924-24.869-8.0898-22.771 12.284-21.872 17.977-3.8951 0.40867 11.933-9.9966-2.3456-3.8951 7.1909 2.397 10.187 8.3894 3.5955 11.086 1.1985 23.071-12.884 20.974-24.269 8.9886-18.577 1.4981-13.183-2.6966-8.3894-6.292-2.397-8.9886 20.674-2.061 20.462c-2.2798 14.34-2.5556 29.962-3.2958 44.943 1.4031 8.4313-9.3191 17.962 4.8817 16.306-0.35722 4.5396-9.006 3.8028 1.6736 15.366l3.5955 14.681 7.1909-16.18-5.6928-24.869 8.689-37.752 12.884-8.9886 2.6452 4.2212c-2.545 13.483-3.7217 37.396-3.2444 55.703-4.9632 2.4431 1.9975 3.3957 2.9962 5.0936l7.4905-3.5955 10.786-16.18 7.1909-14.082 2.9962-8.689-27.865-36.554c-4.8977-7.1909 5.9214-4.001 3.2958-14.382l33.558 2.0974-0.89887 70.711-8.689 6.292 3.8951 8.0898c-1.3901 2.3319-4.095 3.3036 4.4943 7.7902l-12.584 20.974" fill="none" stroke="#fd0000" stroke-width="16"/>
</svg>
